<svg width="28" height="28" viewBox="0 0 28 28" fill="none" xmlns="http://www.w3.org/2000/svg">
<path d="M2.33301 13.4866V15.6684C2.33301 19.1684 4.66634 21.5017 8.16634 21.5017H12.833L18.0247 24.955C18.7947 25.4683 19.833 24.92 19.833 23.9867V21.5017C23.333 21.5017 25.6663 19.1684 25.6663 15.6684V8.66829C25.6663 5.16829 23.333 2.83496 19.833 2.83496H8.16634C4.66634 2.83496 2.33301 5.16829 2.33301 8.66829" stroke="white" stroke-width="1.5" stroke-miterlimit="10" stroke-linecap="round" stroke-linejoin="round"/>
<path d="M14.0001 13.2529V13.008C14.0001 12.2146 14.4901 11.7946 14.9801 11.4563C15.4585 11.1296 15.9367 10.7096 15.9367 9.93964C15.9367 8.8663 15.0734 8.00293 14.0001 8.00293C12.9268 8.00293 12.0635 8.8663 12.0635 9.93964" stroke="white" stroke-width="1.5" stroke-linecap="round" stroke-linejoin="round"/>
<path d="M13.9951 16.0413H14.0056" stroke="white" stroke-width="1.5" stroke-linecap="round" stroke-linejoin="round"/>
</svg>
