<svg width="28" height="28" viewBox="0 0 28 28" fill="none" xmlns="http://www.w3.org/2000/svg">
<path d="M3.69824 8.67969L13.9999 14.6413L24.2315 8.71465" stroke="white" stroke-width="1.5" stroke-linecap="round" stroke-linejoin="round"/>
<path d="M14 25.2116V14.6299" stroke="white" stroke-width="1.5" stroke-linecap="round" stroke-linejoin="round"/>
<path d="M16.4147 25.1068C15.7497 25.4801 14.8747 25.6667 13.9997 25.6667C13.1247 25.6667 12.2497 25.4801 11.5847 25.1068L5.35473 21.6534C3.94306 20.8717 2.78809 18.9118 2.78809 17.3018" stroke="white" stroke-width="1.5" stroke-linecap="round" stroke-linejoin="round"/>
<path d="M25.2114 14.968V10.698C25.2114 9.08801 24.0564 7.12803 22.6447 6.34637L16.4147 2.89301C15.0847 2.14634 12.9147 2.14634 11.5847 2.89301L5.35473 6.34637C3.94306 7.12803 2.78809 9.08801 2.78809 10.698" stroke="white" stroke-width="1.5" stroke-linecap="round" stroke-linejoin="round"/>
<path d="M22.4003 24.9667C24.4622 24.9667 26.1337 23.2952 26.1337 21.2333C26.1337 19.1715 24.4622 17.5 22.4003 17.5C20.3385 17.5 18.667 19.1715 18.667 21.2333C18.667 23.2952 20.3385 24.9667 22.4003 24.9667Z" stroke="white" stroke-width="1.5" stroke-linecap="round" stroke-linejoin="round"/>
<path d="M26.8337 25.6667L25.667 24.5" stroke="white" stroke-width="1.5" stroke-linecap="round" stroke-linejoin="round"/>
</svg>
