<svg width="28" height="28" viewBox="0 0 28 28" fill="none" xmlns="http://www.w3.org/2000/svg">
<path d="M17.5002 26.0413H10.5002C7.39006 26.0413 5.28967 25.375 3.95726 24.0426C2.62485 22.7102 1.9585 20.6098 1.9585 17.4997V10.4997C1.9585 7.38957 2.62485 5.28918 3.95726 3.95677C5.28967 2.62436 7.39006 1.95801 10.5002 1.95801H16.3335C16.5357 1.95801 16.7085 2.13082 16.7085 2.33301C16.7085 2.5352 16.5357 2.70801 16.3335 2.70801H10.5002C7.77572 2.70801 5.7799 3.18741 4.4839 4.48341C3.1879 5.77941 2.7085 7.77523 2.7085 10.4997V17.4997C2.7085 20.2241 3.1879 22.2199 4.4839 23.5159C5.7799 24.8119 7.77572 25.2913 10.5002 25.2913H17.5002C20.2246 25.2913 22.2204 24.8119 23.5164 23.5159C24.8124 22.2199 25.2918 20.2241 25.2918 17.4997V11.6663C25.2918 11.4642 25.4646 11.2913 25.6668 11.2913C25.869 11.2913 26.0418 11.4641 26.0418 11.6663V17.4997C26.0418 20.6098 25.3755 22.7102 24.0431 24.0426C22.7107 25.375 20.6103 26.0413 17.5002 26.0413Z" fill="#385C94" stroke="white"/>
<path d="M16.178 1.99361L16.1851 1.99082L16.1921 1.98781C16.3188 1.93353 16.4797 1.95791 16.6031 2.07331L25.9316 11.4018C26.0361 11.5063 26.0695 11.6745 26.0123 11.8079C25.9495 11.9545 25.8128 12.0416 25.6668 12.0416H21.0002C19.0511 12.0416 17.8322 11.659 17.0866 10.9134C16.341 10.1679 15.9585 8.94901 15.9585 6.99991V2.33324C15.9585 2.17658 16.0538 2.0424 16.178 1.99361ZM17.562 4.09135L16.7085 3.2378V4.44491V6.99991C16.7085 8.50524 16.8926 9.64861 17.622 10.378C18.3515 11.1075 19.4948 11.2916 21.0002 11.2916H23.5552H24.7623L23.9087 10.438L17.562 4.09135Z" fill="#385C94" stroke="white"/>
<path d="M15.1665 15.542H8.1665C7.96431 15.542 7.7915 15.3692 7.7915 15.167C7.7915 14.9648 7.96431 14.792 8.1665 14.792H15.1665C15.3687 14.792 15.5415 14.9648 15.5415 15.167C15.5415 15.3692 15.3687 15.542 15.1665 15.542Z" fill="#385C94" stroke="white"/>
<path d="M12.8332 20.208H8.1665C7.96431 20.208 7.7915 20.0352 7.7915 19.833C7.7915 19.6308 7.96431 19.458 8.1665 19.458H12.8332C13.0354 19.458 13.2082 19.6308 13.2082 19.833C13.2082 20.0352 13.0354 20.208 12.8332 20.208Z" fill="#385C94" stroke="white"/>
</svg>
