<svg width="29" height="28" viewBox="0 0 29 28" fill="none" xmlns="http://www.w3.org/2000/svg">
<path d="M20.5579 24.7956L20.5579 24.7956L20.5536 24.7931L15.8753 22.0164L15.7628 21.9496L15.632 21.9465C15.157 21.9352 14.6886 21.9014 14.2476 21.8353L14.2467 21.8351C14.1074 21.8145 13.9911 21.7227 13.9401 21.5902C13.89 21.46 13.9131 21.3269 14.0047 21.2201C14.851 20.2327 15.2918 19.0445 15.2918 17.7797C15.2918 14.644 12.5452 12.158 9.25009 12.158C8.01658 12.158 6.8247 12.4976 5.81742 13.1595C5.70464 13.2302 5.57171 13.2401 5.4488 13.1852C5.32588 13.1249 5.24614 13.0115 5.23198 12.8939C5.19838 12.5797 5.17676 12.2725 5.17676 11.958C5.17676 6.47717 9.93896 1.96973 15.8534 1.96973C21.7679 1.96973 26.5301 6.47717 26.5301 11.958C26.5301 14.97 25.1372 17.7427 22.665 19.6469L22.4385 19.8214L22.4739 20.1051L22.8702 23.2748C22.8703 23.2755 22.8703 23.2761 22.8704 23.2767C22.9408 23.8811 22.6771 24.4409 22.1737 24.7681C21.925 24.9278 21.6337 25.0147 21.3484 25.0147C21.0737 25.0147 20.8025 24.9442 20.5579 24.7956ZM15.3945 20.4611L15.0021 21.2459L15.8774 21.1834C15.9213 21.1803 15.9757 21.1922 16.0311 21.2291L16.0419 21.2363L16.053 21.2429L20.9361 24.1448C21.0837 24.2366 21.2475 24.2786 21.413 24.2644C21.5674 24.2511 21.6882 24.1921 21.7691 24.1396C21.9417 24.0309 22.18 23.7694 22.1242 23.3613L21.6702 19.6832C21.6554 19.5338 21.7194 19.3971 21.8264 19.3178C24.3292 17.5614 25.7801 14.8706 25.7801 11.9347C25.7801 6.80537 21.2967 2.69637 15.8534 2.69637C10.6153 2.69637 6.2622 6.51148 5.93951 11.3767L5.88764 12.1588L6.61874 11.8761C7.43834 11.5592 8.32233 11.3847 9.23843 11.3847C13.0156 11.3847 16.0301 14.2683 16.0301 17.7563H16.0301L16.0301 17.762C16.0408 18.704 15.8163 19.6175 15.3945 20.4611Z" fill="#385C94" stroke="white"/>
<path d="M5.25287 25.866L5.25058 25.8645C4.88439 25.6285 4.69433 25.2304 4.74115 24.8048L4.97391 23.0125L5.00977 22.7364L4.79391 22.5605C3.33034 21.3679 2.46973 19.6063 2.46973 17.7681C2.46973 15.6714 3.56614 13.7037 5.4235 12.5197L5.42351 12.5198L5.42738 12.5172C6.5461 11.7895 7.87434 11.3965 9.26139 11.3965C13.0385 11.3965 16.0531 14.28 16.0531 17.7681C16.0531 19.1873 15.5367 20.5893 14.5862 21.7017L14.5862 21.7016L14.5807 21.7083C13.3596 23.1888 11.5261 24.0627 9.49028 24.1284L9.36163 24.1325L9.25097 24.1983L6.40537 25.8893C6.40518 25.8894 6.405 25.8895 6.40481 25.8896C6.22939 25.9932 6.03821 26.0415 5.84307 26.0415C5.63389 26.0415 5.43761 25.9865 5.25287 25.866ZM6.27345 25.0813L9.0598 23.4258C9.13646 23.3814 9.20159 23.3664 9.24973 23.3664C11.1018 23.3664 12.8684 22.574 13.997 21.2035C14.8373 20.2093 15.2914 19.0239 15.2914 17.7564C15.2914 14.6316 12.544 12.1465 9.24973 12.1465C8.0157 12.1465 6.82332 12.4863 5.81574 13.1488C4.19029 14.1912 3.20807 15.9073 3.20807 17.7681C3.20807 19.5606 4.08757 21.1933 5.61721 22.2395C5.72979 22.3186 5.79235 22.4514 5.77801 22.5989L5.52215 24.5877L5.3912 25.6055L6.27345 25.0813Z" fill="#385C94" stroke="white"/>
</svg>
