<svg width="40" height="40" viewBox="0 0 40 40" fill="none" xmlns="http://www.w3.org/2000/svg">
<path d="M29.7835 36.4496C29.2668 36.4496 28.7501 36.3162 28.2835 36.0329L21.6001 32.0662C20.9001 32.0496 20.2001 31.9996 19.5335 31.8996C19.0835 31.833 18.7001 31.5329 18.5335 31.0995C18.3668 30.6662 18.4501 30.1995 18.7501 29.8495C19.8501 28.5662 20.4168 27.0329 20.4168 25.3996C20.4168 21.3662 16.8668 18.0829 12.5001 18.0829C10.8668 18.0829 9.30012 18.533 7.98345 19.3996C7.61678 19.6329 7.16679 19.6663 6.76679 19.4829C6.38346 19.2996 6.10014 18.9329 6.05014 18.4996C6.00014 18.0329 5.9668 17.5663 5.9668 17.0829C5.9668 8.81626 13.1335 2.09961 21.9335 2.09961C30.7335 2.09961 37.9001 8.81626 37.9001 17.0829C37.9001 21.6163 35.8001 25.7829 32.1001 28.6329L32.6668 33.1663C32.8001 34.2996 32.3001 35.3663 31.3501 35.983C30.8835 36.283 30.3335 36.4496 29.7835 36.4496ZM21.9168 29.5496C22.1501 29.5329 22.3835 29.5996 22.5835 29.733L29.5668 33.883C29.7501 33.9996 29.9001 33.9496 30.0001 33.883C30.0835 33.833 30.2168 33.6996 30.1835 33.4663L29.5335 28.1996C29.4835 27.7329 29.6835 27.283 30.0501 27.0163C33.4501 24.633 35.4001 20.9996 35.4001 17.0496C35.4001 10.1662 29.3668 4.56624 21.9335 4.56624C14.7835 4.56624 8.91679 9.76631 8.48345 16.2996C9.73345 15.8163 11.0835 15.5496 12.4835 15.5496C18.2335 15.5496 22.9001 19.9495 22.9001 25.3662C22.9168 26.8329 22.5668 28.2496 21.9168 29.5496Z" fill="#385C94"/>
<path d="M7.63296 37.9164C7.19962 37.9164 6.78295 37.7997 6.39961 37.5497C5.64961 37.0664 5.24963 36.2331 5.34963 35.3497L5.68296 32.783C3.43296 30.9497 2.09961 28.233 2.09961 25.383C2.09961 22.133 3.79963 19.0997 6.64963 17.283C8.36629 16.1664 10.3996 15.5664 12.5163 15.5664C18.2663 15.5664 22.9329 19.9663 22.9329 25.383C22.9329 27.583 22.1329 29.7497 20.6663 31.4664C18.7829 33.7497 15.9663 35.083 12.8663 35.183L8.79962 37.5997C8.43295 37.8164 8.03296 37.9164 7.63296 37.9164ZM12.4996 18.0664C10.8663 18.0664 9.29961 18.5164 7.98294 19.383C5.84961 20.7497 4.58295 22.983 4.58295 25.383C4.58295 27.6997 5.71629 29.8164 7.71629 31.1831C8.09963 31.4497 8.29961 31.8997 8.24961 32.3663L7.88295 35.2164L11.8663 32.8497C12.0663 32.7331 12.283 32.6663 12.4996 32.6663C14.9496 32.6663 17.2663 31.6164 18.733 29.8331C19.833 28.5331 20.4163 26.9996 20.4163 25.3663C20.4163 21.3496 16.8663 18.0664 12.4996 18.0664Z" fill="#385C94"/>
</svg>
