<svg width="60" height="60" viewBox="0 0 60 60" fill="none" xmlns="http://www.w3.org/2000/svg">
<path d="M21.3003 12.8751L27.9753 19.5502C29.1003 20.6752 30.9003 20.6752 32.0253 19.5502L38.7002 12.8751C40.5002 11.0751 39.2252 8.00015 36.6752 8.00015H23.3003C20.7753 7.97515 19.5003 11.0751 21.3003 12.8751Z" stroke="#385C94" stroke-width="4" stroke-miterlimit="10" stroke-linecap="round" stroke-linejoin="round"/>
<path d="M21.3003 47.1252L27.9753 40.4502C29.1003 39.3252 30.9003 39.3252 32.0253 40.4502L38.7002 47.1252C40.5002 48.9252 39.2252 52.0002 36.6752 52.0002H23.3003C20.7753 52.0252 19.5003 48.9252 21.3003 47.1252Z" stroke="#385C94" stroke-width="4" stroke-miterlimit="10" stroke-linecap="round" stroke-linejoin="round"/>
<path d="M5.39961 28.6248L10.9247 19.9248C11.7997 18.5498 13.7247 18.3498 14.8747 19.4998L23.5747 28.1998C24.5747 29.1998 24.5747 30.7998 23.5747 31.7998L14.8747 40.4998C13.7247 41.6498 11.7997 41.4498 10.9247 40.0748L5.39961 31.3748C4.87461 30.5248 4.87461 29.4748 5.39961 28.6248Z" stroke="#385C94" stroke-width="4" stroke-miterlimit="10" stroke-linecap="round" stroke-linejoin="round"/>
<path d="M45.1248 19.4998C46.2748 18.3498 48.1998 18.5498 49.0748 19.9248L54.5999 28.6248C55.1249 29.4498 55.1249 30.5248 54.5999 31.3498L49.0748 40.0498C48.1998 41.4248 46.2748 41.6248 45.1248 40.4748L36.4248 31.7748C35.4248 30.7748 35.4248 29.1748 36.4248 28.1748L37.3248 27.2748" stroke="#385C94" stroke-width="4" stroke-miterlimit="10" stroke-linecap="round" stroke-linejoin="round"/>
</svg>
