<svg width="127" height="60" viewBox="0 0 127 60" fill="none" xmlns="http://www.w3.org/2000/svg">
<g clip-path="url(#clip0_1929_2000)">
<path d="M0.184068 24.1922C1.24618 19.7259 4.0289 16.9283 8.46852 15.9129C11.8106 15.146 15.0536 15.494 17.9001 17.5957C20.8102 19.7472 21.929 22.765 21.8653 26.3011C21.8511 26.9472 21.4687 27.0537 20.9164 27.0537C16.5547 27.0395 12.2001 27.0395 7.83834 27.0324C7.59759 27.0324 7.36393 27.0324 7.12318 27.0324C6.26642 27.0608 5.99027 27.3733 6.17437 28.2324C6.57089 30.0928 7.67548 31.3638 9.45982 32.0099C12.016 32.933 14.296 32.3792 16.2927 30.5827C17.1424 29.823 17.1283 29.8159 18.1337 30.3342C19.1604 30.8739 20.1942 31.4064 21.2988 31.9815C21.1784 32.1875 21.0935 32.3721 20.9731 32.5354C19.2879 34.9851 16.9158 36.3626 14.0198 36.8312C11.5416 37.2289 9.05622 37.2786 6.7125 36.2277C3.38456 34.7437 1.04084 32.365 0.191148 28.7011C-0.0566771 27.3591 -0.0708386 26.0384 0.176987 24.1851L0.184068 24.1922ZM11.1026 23.8585C12.3558 23.8585 13.6021 23.8585 14.8553 23.8585C15.9175 23.8585 16.0874 23.5602 15.6484 22.552C14.6146 20.1591 11.9735 19.5484 10.0192 19.9176C8.27026 20.2443 7.03113 21.1957 6.47176 22.9212C6.25225 23.5957 6.45051 23.8443 7.15859 23.8514C8.4756 23.8585 9.78554 23.8514 11.1026 23.8514V23.8585Z" fill="#385C94"/>
<path d="M43.0935 60.0004C43.0015 58.1968 42.9094 56.3933 42.8174 54.6536C43.4334 54.682 44.1202 54.7246 44.8071 54.7317C46.3719 54.7459 47.9368 54.753 49.5016 54.7175C49.7919 54.7104 50.1672 54.8169 50.1955 54.3838C50.0822 56.1092 49.9548 58.0548 49.8202 60.0075H43.0864L43.0935 60.0004Z" fill="#385C94"/>
<path d="M49.6646 49.1144C47.5475 49.0931 45.4374 49.0931 43.3203 49.1144C43.1362 49.1144 41.9678 49.1499 41.4297 49.0931C38.5337 45.202 35.4748 41.1688 32.4938 37.0789C30.8582 34.8351 29.2225 32.57 27.8135 30.1842C26.4894 27.9404 25.9512 25.3913 25.7317 22.7712C25.2715 17.2966 26.6947 12.3901 30.051 8.05166C32.5292 4.84929 35.7014 2.5842 39.525 1.22799C42.0953 0.312012 44.7576 -0.135326 47.4625 0.0421891C54.5715 0.525029 60.1653 3.70609 64.088 9.69899C65.9149 12.4895 66.8849 15.5712 67.2248 18.9085C67.8054 24.6315 66.1131 29.602 62.6931 34.125C59.082 38.8895 55.5558 43.7179 52.0012 48.5179C51.2224 49.3487 51.5127 49.0434 49.6717 49.1144H49.6646ZM45.1471 37.3558C45.7277 37.4836 46.2446 37.1925 46.6128 36.7167C47.3988 35.6943 48.1706 34.6505 48.8857 33.5783C52.4969 28.1818 56.0939 22.7712 59.6838 17.3605C60.4344 16.2315 60.2857 15.415 59.2094 14.6197C58.5155 14.1085 57.8074 13.6114 57.0781 13.157C55.7257 12.312 55.1097 12.4256 54.2175 13.7392C52.0862 16.8564 49.9832 19.9949 47.8661 23.1191C46.8606 24.6031 45.8481 26.0801 44.8497 27.5641C44.5877 27.9546 44.3116 28.0185 43.9646 27.6848C43.5893 27.3298 43.1999 26.9818 42.8317 26.6197C41.4014 25.2138 39.9852 23.7937 38.5337 22.3949C37.5565 21.4505 36.8768 21.4505 35.8997 22.3736C35.1916 23.041 34.4835 23.7085 33.8392 24.4256C32.9116 25.4552 32.9328 26.2008 33.91 27.1878C36.9405 30.2552 39.9782 33.3227 43.0441 36.3617C43.5822 36.8943 44.1983 37.4268 45.1471 37.3487V37.3558Z" fill="#385C94"/>
<path d="M120.846 33.9832C120.705 34.0968 120.556 34.2033 120.429 34.324C115.161 39.3796 106.501 37.2991 104.263 29.9216C103.102 26.1015 103.669 22.4305 106.062 19.1642C107.294 17.4814 109.071 16.537 111.04 15.9761C114.495 14.9891 117.603 15.621 120.315 18.0352C120.457 18.163 120.669 18.3051 120.868 18.2696C121.066 18.234 121.059 17.8719 121.059 17.6802C121.052 16.2175 121.08 16.1962 122.539 16.2246C123.742 16.2459 124.953 16.2246 126.164 16.2246C126.936 16.2246 127.021 16.2956 127.021 17.0767C127.021 20.5985 127.007 24.1204 127.007 27.6423C127.007 30.2767 127.021 32.911 127.021 35.5453C127.021 36.44 126.971 36.4897 126.065 36.4826C124.62 36.4826 123.176 36.4684 121.724 36.4826C121.215 36.4897 121.023 36.2838 121.045 35.7938C121.066 35.2045 121.045 34.6151 121.045 34.0258C120.981 34.0045 120.924 33.9832 120.861 33.9619L120.846 33.9832ZM121.172 26.3855C121.172 23.1051 118.793 20.5914 115.656 20.5772C112.484 20.563 110.02 23.0767 109.999 26.3429C109.977 29.5524 112.47 32.1299 115.578 32.1086C118.779 32.0944 121.165 29.6447 121.172 26.3855Z" fill="#385C94"/>
<path d="M90.5623 37.1932C88.1761 37.1364 85.9528 36.6749 83.956 35.3471C82.3274 34.2678 82.3062 34.1045 83.3825 32.4855C83.7507 31.9246 84.0835 31.3494 84.4233 30.7743C84.8269 30.0926 84.9473 30.0571 85.5279 30.5897C86.6113 31.5767 87.7938 32.4287 89.2736 32.6346C89.9959 32.7341 90.7748 32.6915 91.497 32.5565C92.3962 32.3932 92.8777 31.7045 93.0335 30.8311C93.2034 29.9009 92.7644 29.1909 91.9926 28.779C90.796 28.1471 89.5356 27.6358 88.3036 27.0607C87.6026 26.7341 86.8804 26.4358 86.2148 26.0382C82.8939 24.0358 83.3825 19.4488 86.151 17.4252C88.1124 15.9909 90.3216 15.4654 92.7432 15.6571C94.6408 15.8062 96.411 16.353 98.1316 17.127C98.6344 17.3542 98.7052 17.6098 98.4432 18.0713C97.9688 18.9163 97.5156 19.7755 97.0837 20.6417C96.8217 21.1743 96.5101 21.082 96.0995 20.8406C94.7187 20.024 93.2601 19.4488 91.6174 19.669C91.1854 19.7258 90.7252 19.8678 90.357 20.1021C89.4011 20.6986 89.2524 21.7707 90.1162 22.4879C90.796 23.056 91.6315 23.4678 92.4458 23.837C93.777 24.4477 95.1719 24.9092 96.4889 25.5483C98.2945 26.4287 99.1867 27.9128 99.2504 29.9506C99.3708 33.7068 97.3032 35.8228 94.1098 36.6536C92.9556 36.9518 91.7448 37.0299 90.5553 37.2145L90.5623 37.1932Z" fill="#385C94"/>
<path d="M78.6387 26.3578C78.6387 29.4252 78.6387 32.4927 78.6387 35.5601C78.6387 36.4832 78.6317 36.4832 77.6899 36.4903C76.2879 36.4903 74.8859 36.4761 73.4769 36.5045C72.8821 36.5187 72.6768 36.2702 72.6768 35.7021C72.6838 29.482 72.6838 23.2548 72.6768 17.0347C72.6768 16.4524 72.8892 16.2181 73.4769 16.2252C74.9426 16.2465 76.4083 16.2536 77.8811 16.2252C78.4759 16.211 78.66 16.4453 78.6529 17.0276C78.6317 20.1376 78.6387 23.2477 78.6458 26.3649L78.6387 26.3578Z" fill="#385C94"/>
<path d="M79.1558 8.2508C79.1558 10.2745 77.6617 11.7372 75.6225 11.7301C73.647 11.723 72.0609 10.1538 72.1034 8.18689C72.1459 6.15612 73.7036 4.6508 75.6791 4.6721C77.86 4.6934 79.2266 6.41884 79.1558 8.2508Z" fill="#385C94"/>
<path d="M45.1396 37.3495C44.1978 37.4205 43.5747 36.895 43.0366 36.3625C39.9706 33.3234 36.933 30.2631 33.9024 27.1885C32.9253 26.2015 32.904 25.4631 33.8316 24.4264C34.476 23.7092 35.184 23.0347 35.8921 22.3743C36.8693 21.4583 37.549 21.4583 38.5262 22.3956C39.9706 23.7873 41.3868 25.2146 42.8242 26.6205C43.1924 26.9826 43.5818 27.3234 43.9571 27.6856C44.304 28.0193 44.5802 27.9625 44.8422 27.5649C45.8405 26.0808 46.8531 24.6039 47.8586 23.1199C49.9757 19.9956 52.0787 16.8572 54.21 13.74C55.1092 12.4264 55.7182 12.3057 57.0706 13.1578C57.7999 13.6122 58.508 14.1092 59.2019 14.6205C60.2782 15.4157 60.4269 16.2252 59.6763 17.3613C56.0864 22.772 52.4894 28.1826 48.8782 33.5791C48.163 34.6512 47.3912 35.695 46.6053 36.7175C46.2371 37.1933 45.7202 37.4844 45.1396 37.3566V37.3495Z" fill="white"/>
<path d="M41.6801 48.4293L41.2676 48.5312L42.8744 55.0669L43.2869 54.9649L41.6801 48.4293Z" fill="#385C94"/>
<path d="M43.2279 48.4254L42.8154 48.5273L44.4223 55.063L44.8348 54.961L43.2279 48.4254Z" fill="#385C94"/>
<path d="M49.6998 54.9615L50.1123 55.0635L51.7192 48.5278L51.3067 48.4258L49.6998 54.9615Z" fill="#385C94"/>
<path d="M48.1822 54.9654L48.5947 55.0674L50.2016 48.5317L49.7891 48.4297L48.1822 54.9654Z" fill="#385C94"/>
</g>
<defs>
<clipPath id="clip0_1929_2000">
<rect width="127" height="60" fill="white"/>
</clipPath>
</defs>
</svg>
