<svg width="510" height="75" viewBox="0 0 510 75" fill="none" xmlns="http://www.w3.org/2000/svg">
<g clip-path="url(#clip0_2235_2770)">
<path d="M0.231453 30.24C1.56411 24.6572 5.05568 21.1601 10.6262 19.8909C14.8196 18.9323 18.8887 19.3672 22.4602 21.9944C26.1117 24.6838 27.5154 28.456 27.4355 32.8761C27.4177 33.6838 26.938 33.8169 26.245 33.8169C20.7722 33.7992 15.3083 33.7992 9.83549 33.7903C9.53342 33.7903 9.24023 33.7903 8.93816 33.7903C7.86315 33.8258 7.51666 34.2163 7.74765 35.2903C8.24518 37.6157 9.63115 39.2045 11.87 40.0122C15.0773 41.166 17.9381 40.4737 20.4435 38.2282C21.5096 37.2785 21.4918 37.2696 22.7534 37.9175C24.0416 38.5921 25.3388 39.2578 26.7247 39.9767C26.5737 40.2341 26.4671 40.4649 26.316 40.669C24.2016 43.7311 21.2253 45.453 17.5916 46.0388C14.482 46.5359 11.3636 46.598 8.42287 45.2844C4.2472 43.4294 1.30646 40.456 0.240337 35.8761C-0.0706169 34.1986 -0.0883857 32.5477 0.222568 30.2311L0.231453 30.24ZM13.9312 29.8228C15.5037 29.8228 17.0674 29.8228 18.6399 29.8228C19.9726 29.8228 20.1858 29.4501 19.635 28.1897C18.3379 25.1986 15.024 24.4353 12.5719 24.8968C10.3774 25.3051 8.82267 26.4944 8.1208 28.6512C7.84538 29.4944 8.09414 29.8051 8.98258 29.814C10.6351 29.8228 12.2787 29.814 13.9312 29.814V29.8228Z" fill="#385C94"/>
<path d="M54.0701 75.0002C53.9546 72.7458 53.8391 70.4913 53.7236 68.3168C54.4966 68.3523 55.3584 68.4055 56.2201 68.4144C58.1836 68.4322 60.1471 68.441 62.1105 68.3967C62.4748 68.3878 62.9456 68.5209 62.9812 67.9795C62.839 70.1363 62.6791 72.5683 62.5103 75.0091H54.0612L54.0701 75.0002Z" fill="#385C94"/>
<path d="M62.3157 61.3939C59.6592 61.3673 57.0117 61.3673 54.3552 61.3939C54.1242 61.3939 52.6583 61.4383 51.9831 61.3673C48.3494 56.5034 44.5113 51.462 40.771 46.3496C38.7187 43.5448 36.6664 40.7135 34.8984 37.7312C33.237 34.9265 32.5618 31.7401 32.2864 28.465C31.7089 21.6218 33.4947 15.4886 37.7059 10.0655C40.8154 6.06259 44.7956 3.23123 49.5932 1.53596C52.8182 0.390991 56.1588 -0.168181 59.5526 0.0537129C68.4725 0.657263 75.4912 4.63359 80.4132 12.1247C82.7054 15.6129 83.9225 19.465 84.349 23.6366C85.0775 30.7904 82.9541 37.0034 78.663 42.6573C74.1319 48.6129 69.7075 54.6484 65.2475 60.6484C64.2702 61.6869 64.6345 61.3052 62.3245 61.3939H62.3157ZM56.6474 46.6957C57.3759 46.8555 58.0245 46.4916 58.4865 45.8969C59.4727 44.6188 60.441 43.3141 61.3384 41.9738C65.8694 35.2283 70.3827 28.465 74.8871 21.7016C75.8288 20.2904 75.6423 19.2697 74.2918 18.2756C73.4212 17.6366 72.5327 17.0153 71.6176 16.4472C69.9207 15.391 69.1478 15.533 68.0283 17.175C65.3541 21.0715 62.7155 24.9945 60.059 28.8999C58.7974 30.7549 57.527 32.6011 56.2743 34.4561C55.9455 34.9442 55.5991 35.0241 55.1637 34.607C54.6928 34.1632 54.2042 33.7283 53.7422 33.2756C51.9476 31.5182 50.1707 29.7431 48.3494 27.9945C47.1233 26.8141 46.2704 26.8141 45.0444 27.9679C44.1559 28.8022 43.2675 29.6366 42.459 30.533C41.2952 31.82 41.3218 32.7519 42.5479 33.9857C46.3504 37.82 50.1618 41.6543 54.0087 45.4531C54.684 46.1188 55.4569 46.7845 56.6474 46.6869V46.6957Z" fill="#385C94"/>
<path d="M151.63 42.4794C151.452 42.6215 151.266 42.7546 151.106 42.9055C144.496 49.225 133.63 46.6244 130.823 37.4025C129.366 32.6274 130.076 28.0386 133.079 23.9558C134.625 21.8522 136.855 20.6717 139.325 19.9706C143.661 18.7368 147.561 19.5268 150.964 22.5445C151.141 22.7043 151.408 22.8818 151.657 22.8374C151.905 22.793 151.896 22.3404 151.896 22.1007C151.888 20.2723 151.923 20.2457 153.753 20.2812C155.264 20.3078 156.783 20.2812 158.302 20.2812C159.27 20.2812 159.377 20.37 159.377 21.3463C159.377 25.7487 159.359 30.151 159.359 34.5534C159.359 37.8463 159.377 41.1392 159.377 44.4321C159.377 45.5504 159.315 45.6126 158.178 45.6037C156.365 45.6037 154.553 45.5859 152.732 45.6037C152.092 45.6126 151.852 45.3552 151.879 44.7428C151.905 44.0061 151.879 43.2694 151.879 42.5327C151.799 42.5061 151.728 42.4794 151.648 42.4528L151.63 42.4794ZM152.039 32.9824C152.039 28.8818 149.053 25.7398 145.118 25.722C141.137 25.7043 138.046 28.8463 138.019 32.9291C137.992 36.941 141.12 40.1629 145.02 40.1362C149.036 40.1185 152.03 37.0564 152.039 32.9824Z" fill="#385C94"/>
<path d="M312.58 42.2572C311.833 42.8785 311.132 43.5442 310.341 44.1034C305.765 47.2898 299.235 46.6951 295.184 42.7631C292.696 40.3578 291.444 37.4288 291.23 33.985C291.008 30.3904 291.613 27.062 293.851 24.133C298.249 18.3904 306.423 17.5383 311.905 22.2602C312.109 22.4288 312.802 22.127 312.855 21.8785C312.882 21.772 312.855 21.6655 312.855 21.559C312.864 20.1389 312.9 20.1034 314.303 20.0945C315.902 20.0945 317.502 20.0945 319.101 20.0856C320.318 20.0856 320.327 20.0856 320.327 21.275C320.327 28.3756 320.327 35.4762 320.327 42.5856C320.327 43.2336 320.309 43.8815 320.327 44.5294C320.345 45.0975 320.149 45.3726 319.536 45.3726C317.564 45.3549 315.583 45.3549 313.601 45.3726C313.033 45.3726 312.828 45.1241 312.846 44.5827C312.864 43.8194 312.846 43.0472 312.846 42.2838C312.757 42.2838 312.669 42.2838 312.58 42.2838V42.2572ZM313.042 32.7069C313.042 28.6241 310.03 25.5176 306.059 25.5087C302.061 25.5087 298.978 28.6596 298.995 32.7247C299.013 36.7543 302.096 39.8874 306.05 39.8785C310.03 39.8785 313.042 36.7809 313.042 32.6981V32.7069Z" fill="#385C94"/>
<path d="M382.056 39.7717C380.812 41.822 379.24 43.464 377.134 44.4137C372.035 46.7125 366.864 47.0498 361.889 44.1297C358.548 42.1682 356.149 39.3013 355.438 35.4048C354.319 29.2895 357.429 21.7983 365.007 19.89C367.743 19.1977 370.489 18.967 373.269 19.606C377.863 20.6534 381.665 24.6119 382.456 29.254C382.625 30.2303 382.687 31.2332 382.722 32.2273C382.767 33.4611 382.58 33.6119 381.319 33.6119C376.717 33.6119 372.114 33.6031 367.512 33.5942C366.455 33.5942 365.398 33.5942 364.341 33.5942C363.106 33.5942 362.804 33.9936 363.088 35.2096C363.674 37.748 365.327 39.3013 367.77 39.9936C370.764 40.8368 373.438 40.1622 375.713 38.0232C376.699 37.1001 376.903 37.0824 378.129 37.7303C379.409 38.4137 380.706 39.0705 382.056 39.7717ZM369.272 29.6267C370.951 29.6267 372.63 29.6445 374.3 29.6267C375.153 29.6179 375.411 29.2096 375.117 28.4108C374.282 26.1563 372.585 25.0114 370.275 24.6297C367.139 24.1149 364.332 25.6415 363.426 28.3753C363.115 29.325 363.31 29.6179 364.314 29.6267C365.966 29.6356 367.619 29.6267 369.263 29.6267H369.272Z" fill="#385C94"/>
<path d="M492.169 22.4645C493.635 20.9912 495.465 20.0503 497.482 19.4823C498.183 19.287 498.956 19.3225 499.703 19.2693C502.252 19.0829 504.5 19.9083 506.508 21.4083C508.614 22.9793 509.831 25.1095 509.875 27.7456C509.973 33 510 38.2634 510 43.5267C510 45.719 508.525 46.2782 506.437 46.0829C505.486 45.9941 504.509 45.9941 503.558 46.0829C502.563 46.1716 501.622 46.1006 500.787 45.5237C500.058 45.0178 499.969 44.1835 499.96 43.3935C499.943 39.2219 499.889 35.0415 499.978 30.8699C500.023 28.5622 497.873 27.4083 495.882 28.2693C494.878 28.7042 494.488 29.4231 494.479 30.4616C494.443 32.6006 494.354 34.7486 494.354 36.8876C494.354 38.9557 494.461 41.0237 494.479 43.1006C494.505 45.2219 492.995 46.3935 490.907 46.0563C489.974 45.9054 488.97 45.8699 488.037 46.0208C485.328 46.4468 484.084 45.0533 484.279 42.5415C484.359 41.5563 484.395 40.571 484.404 39.5858C484.421 37.2693 484.439 34.9527 484.386 32.6361C484.368 31.6598 484.226 30.6746 484.022 29.716C483.791 28.6154 482.582 27.8521 481.463 27.9764C479.508 28.1983 478.656 29.148 478.656 31.1184C478.656 35.1213 478.576 39.1332 478.691 43.1361C478.762 45.4705 476.941 46.3403 475.057 46.0918C474.062 45.9675 473.041 46.0385 472.037 46.0829C471.237 46.1184 470.464 46.1805 469.718 45.7545C468.829 45.2486 468.438 44.5208 468.438 43.5C468.447 36.5237 468.438 29.5563 468.438 22.5799C468.438 20.9379 469.362 20.0148 470.997 20.006C472.694 20.006 474.391 19.9438 476.079 20.0326C476.763 20.0681 477.421 20.4586 478.096 20.6628C478.318 20.7249 478.62 20.7959 478.789 20.6983C480.957 19.3403 483.373 19.003 485.816 19.3403C487.922 19.6332 489.912 20.4231 491.485 21.9853C491.636 22.1361 491.804 22.2782 491.964 22.4202C492 22.4468 492.053 22.4468 492.169 22.4734V22.4645ZM491.884 24.7279C490.33 22.2604 487.966 21.0089 485.026 20.7604C482.067 20.5119 479.535 21.4882 477.314 23.6361C477.278 23.2367 477.243 23.077 477.243 22.9172C477.261 21.6036 477.021 21.3817 475.679 21.3906C474.249 21.3995 472.827 21.3995 471.397 21.3906C470.144 21.3906 469.931 21.5858 469.931 22.864C469.931 27.5947 469.94 32.3255 469.94 37.0563C469.94 39.1598 469.922 41.2545 469.931 43.358C469.931 44.29 470.171 44.5474 471.068 44.5563C472.712 44.574 474.355 44.5829 475.999 44.574C476.905 44.574 477.216 44.2456 477.261 43.3492C477.27 43.0829 477.261 42.8166 477.261 42.5503C477.261 38.5918 477.287 34.6332 477.243 30.6746C477.225 28.5533 478.576 26.929 480.583 26.5829C482.494 26.2545 484.937 26.8847 485.417 29.2634C485.594 30.1509 485.754 31.0651 485.754 31.9705C485.79 35.6095 485.754 39.2574 485.754 42.9054C485.754 44.4853 485.976 44.6539 487.602 44.5385C488.713 44.4586 489.832 44.4497 490.934 44.5208C492.755 44.645 492.942 44.5119 492.942 42.6746C492.942 38.9113 492.915 35.148 492.924 31.3847C492.924 30.8077 492.968 30.2219 493.075 29.6628C493.341 28.2426 494.168 27.2752 495.536 26.7959C497.899 25.9616 500.209 26.8225 501.044 28.9616C501.337 29.7249 501.417 30.6125 501.426 31.4379C501.462 35.3965 501.444 39.3551 501.444 43.3137C501.444 44.2634 501.702 44.574 502.537 44.574C504.225 44.5918 505.922 44.574 507.61 44.574C508.249 44.574 508.543 44.2989 508.534 43.5977C508.507 38.4853 508.516 33.364 508.516 28.2515C508.516 26.4054 507.823 24.8077 506.579 23.4764C503.621 20.3255 498.619 19.7574 494.976 22.1894C493.883 22.9172 492.942 23.858 491.893 24.7456L491.884 24.7279Z" fill="#385C94"/>
<path d="M323.632 20.0774C324.325 20.0774 324.778 20.0774 325.222 20.0774C327.39 20.0774 329.558 20.0863 331.717 20.0774C332.232 20.0774 332.561 20.2105 332.792 20.7165C334.506 24.5597 336.248 28.3851 337.98 32.2194C338.433 33.2224 338.904 34.2165 339.455 35.3969C339.704 35.0064 339.89 34.7668 340.006 34.5005C342.076 29.965 344.146 25.4206 346.207 20.8762C346.42 20.3969 346.643 20.0597 347.256 20.0685C349.796 20.0952 352.346 20.0863 354.887 20.0952C354.994 20.0952 355.092 20.1307 355.331 20.1662C354.834 21.1425 354.363 22.0744 353.883 22.9886C350.152 30.0537 346.412 37.11 342.698 44.175C342.254 45.0182 341.703 45.4354 340.717 45.3644C339.935 45.3111 339.153 45.4354 338.371 45.4531C337.358 45.4798 336.639 45.0537 336.159 44.1218C332.623 37.2963 329.069 30.4798 325.515 23.6632C324.929 22.5449 324.334 21.4265 323.623 20.0863L323.632 20.0774Z" fill="#385C94"/>
<path d="M257.221 37.5265C257.372 39.2218 258.66 39.8875 260.286 39.4082C261.743 38.9822 261.726 38.9822 262.17 40.5177C262.525 41.7336 262.961 42.923 263.289 44.1478C263.351 44.3875 263.156 44.8757 262.952 44.9644C260.029 46.2336 257.017 46.6863 253.987 45.4348C251.349 44.352 250.131 42.1774 249.794 39.4437C249.705 38.7248 249.696 37.9881 249.687 37.2603C249.652 33.8076 249.625 30.3638 249.59 26.9112C249.581 25.8904 249.412 25.7041 248.372 25.5975C248.239 25.5798 248.106 25.5798 247.964 25.5709C246.187 25.4733 246.098 25.3845 246.089 23.636C246.089 22.7484 246.071 21.852 246.071 20.9644C246.071 20.2188 246.462 19.8727 247.2 19.9259C247.599 19.9526 248.008 20.0325 248.408 20.068C249.119 20.1212 249.563 19.8727 249.554 19.0739C249.536 16.7218 249.545 14.3786 249.527 12.0265C249.518 10.562 249.643 10.4467 251.073 10.4644C252.672 10.4822 254.272 10.4644 255.862 10.4644C256.875 10.4644 257.052 10.6153 257.052 11.6271C257.052 13.8372 257.044 16.0561 257.035 18.2662C257.035 19.9171 257.203 20.0946 258.829 20.068C259.833 20.0591 260.837 20.0857 261.832 20.0502C262.481 20.0325 262.774 20.2632 262.756 20.9378C262.73 22.207 262.738 23.4762 262.756 24.7455C262.756 25.4023 262.445 25.6774 261.806 25.6686C260.722 25.6508 259.638 25.6686 258.554 25.6419C257.168 25.6242 257.035 25.7484 257.035 27.1597C257.035 28.6686 257.035 30.1863 257.035 31.6952C257.088 31.6952 257.061 35.5828 257.23 37.5088L257.221 37.5265Z" fill="#385C94"/>
<path d="M113.631 46.491C110.637 46.42 107.848 45.8431 105.342 44.1834C103.299 42.8342 103.272 42.6301 104.623 40.6064C105.085 39.9052 105.502 39.1863 105.929 38.4674C106.435 37.6153 106.586 37.5709 107.315 38.2366C108.674 39.4703 110.158 40.5354 112.015 40.7928C112.921 40.9171 113.898 40.8638 114.804 40.6952C115.933 40.491 116.537 39.6301 116.732 38.5384C116.945 37.3757 116.395 36.4881 115.426 35.9733C113.925 35.1834 112.343 34.5443 110.797 33.8254C109.918 33.4171 109.012 33.0443 108.176 32.5473C104.01 30.0443 104.623 24.3106 108.096 21.781C110.557 19.9881 113.329 19.3313 116.368 19.5709C118.749 19.7573 120.97 20.4408 123.129 21.4082C123.76 21.6922 123.849 22.0118 123.52 22.5887C122.925 23.6449 122.356 24.7189 121.814 25.8017C121.485 26.4674 121.094 26.352 120.579 26.0502C118.847 25.0295 117.016 24.3106 114.955 24.5857C114.413 24.6567 113.836 24.8342 113.374 25.1271C112.174 25.8727 111.988 27.2129 113.072 28.1094C113.925 28.8194 114.973 29.3342 115.995 29.7958C117.665 30.5591 119.415 31.136 121.068 31.9348C123.333 33.0354 124.453 34.8905 124.533 37.4378C124.684 42.1331 122.089 44.778 118.083 45.8165C116.634 46.1893 115.115 46.2869 113.623 46.5177L113.631 46.491Z" fill="#385C94"/>
<path d="M388.311 23.9468C388.311 17.4142 388.311 10.8817 388.311 4.34915C388.311 2.66276 388.471 2.57401 390.114 2.65389C391.545 2.72489 392.984 2.68939 394.414 2.60951C395.631 2.54738 395.916 2.75152 395.916 3.97637C395.916 17.3166 395.916 30.648 395.916 43.9882C395.916 45.2219 395.791 45.3373 394.565 45.3373C392.886 45.3373 391.207 45.3373 389.528 45.3373C388.462 45.3373 388.302 45.1776 388.302 44.0326C388.302 39.0089 388.328 33.9941 388.337 28.9705C388.337 27.2929 388.337 25.6243 388.337 23.9468C388.328 23.9468 388.311 23.9468 388.302 23.9468H388.311Z" fill="#385C94"/>
<path d="M277.194 23.2987C277.398 23.1035 277.62 22.9348 277.807 22.7218C280.552 19.6597 283.919 18.5946 287.917 19.6242C288.459 19.7662 288.974 20.0236 289.498 20.2366C290.023 20.4496 290.085 20.8224 289.854 21.2839C289.045 22.8993 288.219 24.5147 287.42 26.1301C287.162 26.6449 286.851 26.7425 286.309 26.494C284.008 25.4289 281.734 25.2336 279.539 26.778C277.816 27.9851 276.918 29.6183 276.927 31.7218C276.936 35.7958 276.963 39.8786 276.989 43.9526C276.989 45.2307 276.892 45.3461 275.63 45.3461C273.871 45.3461 272.112 45.3283 270.344 45.3461C269.677 45.3549 269.438 45.1064 269.438 44.4496C269.455 36.6123 269.455 28.7839 269.438 20.9467C269.438 20.2721 269.695 20.0502 270.353 20.0591C272.245 20.0857 274.146 20.0946 276.039 20.0591C276.794 20.0413 276.971 20.3609 276.936 21.0265C276.9 21.7455 276.927 22.4644 276.927 23.1833C277.007 23.2189 277.096 23.2632 277.176 23.2987H277.194Z" fill="#385C94"/>
<path d="M168.2 27.4174C165.952 27.1689 165.09 26.9115 165.001 23.9115C164.975 22.9263 164.948 21.9322 165.001 20.947C165.081 19.447 165.872 18.657 167.365 18.6304C168.022 18.6127 168.218 18.4352 168.218 17.7606C168.218 15.7103 168.164 13.6511 168.386 11.6186C168.848 7.40261 170.554 3.94107 174.97 2.25468C176.898 1.51799 178.994 1.31385 181.038 1.82864C182.424 2.1748 183.783 2.69847 185.089 3.26651C186.555 3.91444 186.937 5.41444 186.173 6.83456C185.56 7.96178 184.991 9.11563 184.441 10.2783C183.934 11.3523 182.85 11.876 181.677 11.6097C181.136 11.4854 180.585 11.4411 180.034 11.3612C179.288 11.2458 178.994 11.7251 178.95 12.3198C178.817 14.1304 178.755 15.9499 178.639 17.7606C178.595 18.3996 178.79 18.6837 179.492 18.6393C180.327 18.586 181.171 18.6127 182.006 18.6304C183.383 18.6482 184.334 19.2872 184.458 20.6275C184.6 22.2695 184.574 23.9381 184.405 25.5801C184.281 26.805 183.481 27.3198 182.228 27.3553C181.313 27.3819 180.398 27.4085 179.483 27.3553C178.799 27.3109 178.63 27.5683 178.63 28.2251C178.657 32.9115 178.648 37.6068 178.657 42.2931C178.657 42.5949 178.657 42.9056 178.657 43.2073C178.63 45.2576 177.173 46.3582 175.121 46.0387C174.064 45.8789 172.953 45.9056 171.887 46.0298C170.057 46.2428 168.129 45.6038 168.182 43.0387C168.28 38.1482 168.209 33.2488 168.209 28.3582C168.209 28.0565 168.209 27.7636 168.209 27.4263L168.2 27.4174ZM177.2 35.1038C177.2 32.3434 177.209 29.5742 177.2 26.8138C177.2 26.1748 177.44 25.8908 178.097 25.8996C179.27 25.9263 180.434 25.9085 181.606 25.9085C182.788 25.9085 183.001 25.6689 182.984 24.4618C182.966 23.4766 182.975 22.4825 182.984 21.4973C183.001 20.3346 182.753 20.0772 181.553 20.086C180.336 20.086 179.11 20.086 177.893 20.086C177.511 20.086 177.182 20.0683 177.209 19.5357C177.306 17.0328 177.351 14.5298 177.502 12.0269C177.582 10.7133 178.381 9.88781 179.519 9.83456C180.238 9.79906 181.002 9.87006 181.677 10.1008C182.442 10.3582 182.824 10.1275 183.126 9.47953C183.517 8.65409 183.916 7.83752 184.325 7.02095C185.311 5.03278 185.347 4.97065 183.312 4.09196C179.874 2.60083 176.462 2.59196 173.362 4.89965C170.918 6.7103 170.128 9.4529 169.852 12.302C169.657 14.4144 169.746 16.5535 169.71 18.6837C169.684 20.2991 169.755 20.1215 168.244 20.0683C168.093 20.0683 167.942 20.0683 167.782 20.0683C166.796 20.0683 166.459 20.3878 166.441 21.3819C166.432 22.2695 166.441 23.157 166.476 24.0446C166.521 25.5712 166.858 25.8908 168.404 25.9174C169.269 25.9292 169.701 26.3641 169.701 27.2221C169.701 32.4943 169.684 37.7754 169.675 43.0476C169.675 44.2014 169.986 44.4677 171.141 44.4499C172.686 44.4322 174.241 44.4499 175.787 44.4677C176.889 44.4854 177.209 44.1926 177.209 43.1008C177.209 40.4381 177.209 37.7754 177.209 35.1127L177.2 35.1038Z" fill="#385C94"/>
<path d="M421.423 45.3103C419.646 44.5292 418.029 43.3665 416.794 41.8044C416.225 41.0855 415.577 40.3932 415.186 39.5855C414.546 38.263 413.924 36.8872 413.604 35.4582C413.204 33.7008 413.302 31.8724 413.666 30.0884C414.146 27.7186 415.337 25.7127 416.918 23.9198C418.668 21.9405 420.872 20.6091 423.386 19.8724C425.909 19.1358 428.486 18.976 431.098 19.5884C432.635 19.9435 434.109 20.4139 435.46 21.2216C436.846 22.047 437.166 23.2896 436.384 24.7275C435.904 25.615 435.469 26.5115 435.042 27.4257C434.34 28.9079 433.088 29.3784 431.64 28.6949C429.641 27.7541 426.549 27.834 425.047 29.6979C424.585 30.2748 424.31 31.0115 424.052 31.7216C423.626 32.902 423.795 34.0736 424.337 35.192C425.03 36.6121 426.193 37.3221 427.722 37.6861C429.205 38.0411 430.502 37.6417 431.835 37.1535C433.203 36.6565 434.065 36.9139 434.794 38.1565C435.433 39.2482 436.02 40.3932 436.517 41.5559C437.148 43.0204 436.713 44.121 435.22 44.902C431.782 46.6062 427.268 47.1653 421.414 45.3014L421.423 45.3103ZM428.006 45.1949C428.246 45.1949 428.486 45.1949 428.734 45.1949C430.911 45.1594 432.928 44.5914 434.776 43.4375C435.273 43.1269 435.504 42.7541 435.202 42.1772C434.625 41.0677 434.056 39.9494 433.479 38.831C433.221 38.334 432.866 38.192 432.35 38.476C430.778 39.3547 429.116 39.4967 427.366 39.1594C424.825 38.6801 422.959 36.9139 422.471 34.1801C422.062 31.8902 422.729 29.2541 424.959 27.7985C427.18 26.3517 429.569 26.2186 432.004 27.3014C432.963 27.7275 433.177 27.6831 433.647 26.7689C434.109 25.8724 434.571 24.9671 435.042 24.0707C435.513 23.1742 435.415 22.8369 434.5 22.3399C433.088 21.5766 431.595 21.0884 429.987 20.8754C426.558 20.4227 423.35 20.9553 420.41 22.8458C415.088 26.2719 413.24 33.1772 416.305 38.5914C418.855 43.0914 422.915 45.0884 428.006 45.1683V45.1949Z" fill="#385C94"/>
<path d="M98.6701 32.9467C98.6701 36.781 98.6701 40.6154 98.6701 44.4497C98.6701 45.6035 98.6612 45.6035 97.4796 45.6124C95.7205 45.6124 93.9614 45.5946 92.1934 45.6301C91.4471 45.6479 91.1895 45.3372 91.1895 44.6272C91.1983 36.852 91.1983 29.068 91.1895 21.2929C91.1895 20.5651 91.456 20.2722 92.1934 20.281C94.0325 20.3077 95.8715 20.3165 97.7195 20.281C98.4658 20.2633 98.6968 20.5562 98.6879 21.284C98.6612 25.1716 98.6701 29.0591 98.679 32.9556L98.6701 32.9467Z" fill="#385C94"/>
<path d="M466.786 32.9293C466.697 37.305 464.956 40.8908 461.5 43.5802C459.927 44.805 458.088 45.5861 456.143 46.1542C453.593 46.8997 451.007 46.7843 448.466 46.4648C446.618 46.234 444.833 45.453 443.154 44.5121C441.146 43.3849 439.502 41.876 438.365 39.9234C437.272 38.0329 436.597 35.9648 436.472 33.7281C436.33 31.1009 437.023 28.6778 438.161 26.3879C438.676 25.3583 439.502 24.4352 440.364 23.6364C441.341 22.7222 442.434 21.8701 443.607 21.2577C444.886 20.5831 446.325 20.2281 447.685 19.7044C449.177 19.1364 450.732 19.2695 452.269 19.2962C456.613 19.3672 460.372 20.8849 463.33 24.0891C465.613 26.5565 466.831 29.5121 466.777 32.9382L466.786 32.9293ZM452.278 45.2311C453.921 45.382 456.054 44.8317 458.097 43.882C462.175 41.9826 464.636 38.805 465.222 34.3672C465.871 29.4145 463.259 24.7015 458.817 22.3849C455.743 20.7784 452.473 20.5033 449.097 20.9204C443.696 21.595 438.791 25.6334 438.098 31.376C437.654 35.0861 438.551 38.3879 441.163 41.0861C444.006 44.0151 447.587 45.2488 452.269 45.2311H452.278Z" fill="#385C94"/>
<path d="M195.27 46.0123C192.241 45.2934 189.629 43.7312 187.665 41.3082C186.093 39.3555 184.902 37.1809 184.574 34.607C184.032 30.3377 184.894 26.5034 187.772 23.1839C189.771 20.8762 192.268 19.3584 195.164 18.5152C196.408 18.1513 197.74 17.965 199.037 17.8939C201.01 17.7874 202.982 17.7697 204.919 18.3289C207.113 18.959 209.095 19.9709 210.907 21.3466C213.874 23.6188 215.598 26.6277 216.096 30.2756C216.282 31.6691 216.024 33.1336 215.873 34.5626C215.713 36.0981 215.26 37.5448 214.55 38.9472C213.537 40.9531 212.018 42.4442 210.241 43.7401C208.393 45.0892 206.269 45.8525 204.084 46.3673C202.893 46.6425 201.614 46.5448 200.379 46.6158C200.37 46.6513 196.923 46.4206 195.27 46.0212V46.0123ZM200.512 19.3939C198.167 19.3584 195.901 19.7135 193.751 20.6454C188.03 23.1306 184.467 29.3348 186.457 35.8229C187.594 39.5419 190.02 42.249 193.627 43.8377C196.203 44.9738 198.922 45.2224 201.676 45.0803C205.39 44.8851 208.624 43.4916 211.262 40.8644C213.199 38.9295 214.088 36.5064 214.496 33.8259C214.923 30.9945 214.514 28.3407 212.968 25.962C210.063 21.4886 205.834 19.3762 200.512 19.3939Z" fill="#385C94"/>
<path d="M229.582 19.491C230.604 19.1005 231.785 18.5679 233.011 18.2129C235.375 17.5206 237.693 17.707 239.95 18.7543C240.812 19.1537 241.683 19.5177 241.745 20.5916C241.78 21.204 241.727 21.8875 241.478 22.4289C240.794 23.9644 240.039 25.4821 239.213 26.9466C238.404 28.3579 237.072 28.5532 235.517 27.9407C233.544 27.1685 231.368 27.2928 230.159 29.423C229.804 30.0443 229.635 30.8608 229.626 31.5887C229.573 35.4141 229.609 39.2484 229.609 43.0739C229.609 45.2484 228.143 46.3756 225.975 46.0472C224.935 45.8875 223.852 45.9496 222.803 46.0384C221.666 46.136 220.635 46.0029 219.711 45.3017C219.09 44.8313 219.027 44.1567 219.027 43.4644C219.027 38.5206 219.027 33.5768 219.027 28.633C219.027 26.0946 219.027 23.565 219.027 21.0265C219.027 19.4023 219.658 18.6922 221.311 18.6478C223.319 18.5946 225.335 18.5679 227.334 18.6745C228.054 18.71 228.756 19.1804 229.6 19.5088L229.582 19.491ZM228.152 22.8194C228.152 22.2159 228.152 21.8342 228.152 21.4614C228.152 20.3165 227.938 20.0857 226.775 20.0857C225.122 20.0857 223.47 20.0857 221.817 20.0857C220.786 20.0857 220.573 20.3076 220.573 21.3372C220.573 28.6153 220.573 35.8845 220.573 43.1626C220.573 44.2632 220.742 44.423 221.853 44.4319C223.478 44.4319 225.104 44.4407 226.73 44.4496C227.85 44.4496 228.161 44.1478 228.161 42.994C228.161 39.0176 228.161 35.0324 228.161 31.0561C228.161 29.0147 229.449 27.1774 231.341 26.3697C233.065 25.633 234.717 25.9259 236.361 26.5827C237.374 26.991 237.516 26.9555 238.013 25.9614C238.68 24.6567 239.319 23.3342 239.977 22.0206C240.563 20.8579 240.483 20.5561 239.266 20.1034C235.659 18.7721 232.345 19.2514 229.395 21.7898C229.04 22.1005 228.667 22.3934 228.161 22.8194H228.152Z" fill="#385C94"/>
<path d="M405.369 35.299C408.309 35.2014 411.081 37.4292 410.957 40.9706C410.85 44.1393 408.54 46.2695 405.36 46.3227C402.046 46.376 399.772 43.7576 399.727 40.8197C399.683 37.7487 402.268 35.0683 405.369 35.299ZM405.413 44.947C407.776 45.1777 409.624 43.0919 409.687 40.9618C409.758 38.3257 407.759 36.6126 405.449 36.5416C402.89 36.4618 401.015 38.4766 401.033 40.802C401.042 42.9144 402.686 45.2044 405.413 44.9381V44.947Z" fill="#385C94"/>
<path d="M99.3187 10.3135C99.3187 12.8431 97.4441 14.6715 94.8853 14.6626C92.4066 14.6537 90.4165 12.6922 90.4698 10.2336C90.5231 7.69515 92.4777 5.8135 94.9564 5.84012C97.6928 5.86675 99.4075 8.02355 99.3187 10.3135Z" fill="#385C94"/>
<path d="M56.6384 46.6863C55.4567 46.7751 54.6749 46.1183 53.9997 45.4526C50.1527 41.6538 46.3413 37.8284 42.5388 33.9852C41.3128 32.7514 41.2861 31.8284 42.45 30.5325C43.2585 29.6361 44.1469 28.7929 45.0353 27.9674C46.2614 26.8224 47.1143 26.8224 48.3403 27.994C50.1527 29.7337 51.9296 31.5177 53.7332 33.2751C54.1951 33.7278 54.6838 34.1538 55.1547 34.6065C55.59 35.0236 55.9365 34.9526 56.2652 34.4556C57.5179 32.6005 58.7884 30.7544 60.05 28.8994C62.7064 24.994 65.3451 21.071 68.0193 17.1745C69.1476 15.5325 69.9116 15.3816 71.6086 16.4467C72.5237 17.0147 73.4121 17.636 74.2828 18.2751C75.6332 19.2692 75.8198 20.281 74.878 21.7011C70.3736 28.4645 65.8604 35.2278 61.3293 41.9733C60.432 43.3136 59.4636 44.6183 58.4774 45.8964C58.0154 46.4911 57.3669 46.855 56.6384 46.6952V46.6863Z" fill="white"/>
<path d="M491.885 24.7278C492.933 23.8491 493.884 22.9082 494.968 22.1716C498.611 19.7307 503.612 20.3076 506.571 23.4585C507.824 24.7899 508.508 26.3875 508.508 28.2337C508.508 33.3461 508.508 38.4674 508.526 43.5798C508.526 44.2899 508.241 44.5562 507.602 44.5562C505.914 44.565 504.217 44.5828 502.529 44.5562C501.693 44.5562 501.436 44.2366 501.436 43.2958C501.436 39.3372 501.454 35.3787 501.418 31.4201C501.418 30.5858 501.338 29.7071 501.036 28.9437C500.21 26.8136 497.891 25.9437 495.528 26.7781C494.159 27.2574 493.324 28.2337 493.067 29.6449C492.96 30.213 492.916 30.7988 492.916 31.3668C492.916 35.1301 492.925 38.8934 492.933 42.6568C492.933 44.494 492.747 44.6272 490.926 44.5029C489.815 44.4319 488.696 44.4408 487.594 44.5207C485.968 44.6361 485.746 44.4674 485.746 42.8875C485.746 39.2396 485.782 35.6005 485.746 31.9526C485.746 31.0473 485.586 30.1331 485.408 29.2455C484.929 26.8757 482.485 26.2366 480.575 26.565C478.576 26.9112 477.217 28.5355 477.235 30.6568C477.279 34.6153 477.252 38.5739 477.252 42.5325C477.252 42.7988 477.261 43.065 477.252 43.3313C477.208 44.2278 476.897 44.5473 475.991 44.5562C474.347 44.565 472.704 44.5562 471.06 44.5384C470.172 44.5295 469.932 44.2721 469.923 43.3402C469.923 41.2366 469.932 39.142 469.932 37.0384C469.932 32.3076 469.923 27.5769 469.923 22.8461C469.923 21.568 470.136 21.3639 471.389 21.3727C472.819 21.3727 474.241 21.3727 475.671 21.3727C477.013 21.3639 477.252 21.5858 477.235 22.8994C477.235 23.0591 477.261 23.2278 477.306 23.6183C479.536 21.4704 482.068 20.494 485.017 20.7426C487.958 20.9911 490.321 22.2426 491.876 24.71L491.885 24.7278Z" fill="white"/>
<path d="M177.19 35.0944C177.19 37.7571 177.19 40.4198 177.19 43.0826C177.19 44.1743 176.861 44.4583 175.769 44.4494C174.223 44.4317 172.668 44.4228 171.122 44.4317C169.967 44.4406 169.656 44.1743 169.656 43.0293C169.656 37.7571 169.674 32.4761 169.683 27.2039C169.683 26.3459 169.25 25.911 168.386 25.8991C166.84 25.8725 166.502 25.5619 166.458 24.0264C166.431 23.1388 166.413 22.2512 166.422 21.3636C166.431 20.3695 166.778 20.05 167.764 20.05C167.915 20.05 168.066 20.05 168.226 20.05C169.736 20.1122 169.665 20.2897 169.692 18.6654C169.727 16.5352 169.638 14.3962 169.834 12.2837C170.1 9.43464 170.9 6.69203 173.343 4.88138C176.453 2.57369 179.855 2.58257 183.294 4.07369C185.328 4.95239 185.293 5.01452 184.307 7.00268C183.898 7.81925 183.498 8.63582 183.107 9.46126C182.805 10.1092 182.432 10.3488 181.659 10.0826C180.984 9.8518 180.22 9.78079 179.5 9.81629C178.354 9.86955 177.563 10.7039 177.483 12.0086C177.332 14.5116 177.288 17.0145 177.19 19.5175C177.172 20.05 177.492 20.0766 177.874 20.0678C179.091 20.0678 180.317 20.0678 181.535 20.0678C182.725 20.0678 182.974 20.3163 182.965 21.479C182.956 22.4642 182.947 23.4583 182.965 24.4435C182.983 25.6506 182.77 25.8903 181.588 25.8903C180.415 25.8903 179.251 25.908 178.079 25.8814C177.421 25.8636 177.172 26.1477 177.181 26.7956C177.199 29.5559 177.181 32.3252 177.181 35.0855L177.19 35.0944Z" fill="white"/>
<path d="M428.006 45.1956C422.915 45.1157 418.855 43.1187 416.305 38.6187C413.24 33.2134 415.088 26.308 420.41 22.8731C423.342 20.9826 426.558 20.4501 429.987 20.9027C431.595 21.1157 433.088 21.6039 434.501 22.3672C435.416 22.8643 435.513 23.1927 435.043 24.098C434.572 24.9944 434.119 25.8998 433.648 26.7962C433.177 27.7104 432.964 27.7548 432.004 27.3288C429.57 26.2459 427.18 26.3702 424.959 27.8258C422.729 29.2814 422.062 31.9175 422.471 34.2074C422.96 36.9412 424.826 38.7074 427.366 39.1867C429.108 39.5151 430.778 39.3731 432.351 38.5033C432.866 38.2193 433.221 38.3613 433.479 38.8583C434.056 39.9767 434.616 41.0861 435.203 42.2045C435.505 42.7814 435.274 43.1542 434.776 43.4648C432.928 44.6187 430.911 45.1779 428.735 45.2222C428.495 45.2222 428.255 45.2222 428.006 45.2222V45.1956Z" fill="white"/>
<path d="M452.278 45.2307C447.596 45.2484 444.016 44.0147 441.173 41.0857C438.561 38.3875 437.663 35.0857 438.108 31.3756C438.792 25.6242 443.696 21.5946 449.107 20.92C452.483 20.5029 455.752 20.778 458.826 22.3845C463.268 24.71 465.88 29.4141 465.232 34.3668C464.645 38.8046 462.184 41.9821 458.106 43.8816C456.063 44.8313 453.931 45.3816 452.287 45.2307H452.278ZM445.579 32.9378C445.437 36.4703 448.076 39.062 451.514 39.133C455.104 39.204 457.796 36.5502 457.796 32.9999C457.796 29.3431 454.988 26.9111 451.763 26.849C448.236 26.7869 445.428 29.5561 445.579 32.9378Z" fill="white"/>
<path d="M200.503 19.3933C205.825 19.3756 210.054 21.488 212.959 25.9614C214.496 28.3312 214.914 30.985 214.487 33.8253C214.079 36.5146 213.19 38.9288 211.253 40.8637C208.615 43.4998 205.381 44.8844 201.667 45.0797C198.904 45.2217 196.194 44.9732 193.618 43.8371C190.011 42.2483 187.585 39.5412 186.448 35.8223C184.458 29.3341 188.03 23.13 193.742 20.6448C195.892 19.704 198.158 19.3489 200.503 19.3933ZM200.317 25.8549C196.745 25.6685 193.867 28.6241 193.884 32.2631C193.902 35.9199 196.559 38.698 200.228 38.7336C203.968 38.7691 206.784 35.9909 206.758 32.272C206.731 28.3134 203.755 25.7217 200.317 25.8549Z" fill="white"/>
<path d="M228.152 22.8194C228.658 22.3934 229.031 22.1005 229.387 21.7898C232.336 19.2425 235.65 18.772 239.257 20.1034C240.474 20.5561 240.554 20.8578 239.968 22.0206C239.311 23.3342 238.671 24.6567 238.005 25.9614C237.498 26.9466 237.365 26.9821 236.352 26.5827C234.708 25.9259 233.056 25.633 231.332 26.3697C229.449 27.1774 228.161 29.0235 228.152 31.0561C228.152 35.0324 228.152 39.0176 228.152 42.9939C228.152 44.1389 227.841 44.4584 226.721 44.4496C225.096 44.4496 223.47 44.4407 221.844 44.4318C220.733 44.4318 220.564 44.2632 220.564 43.1626C220.564 35.8845 220.564 28.6152 220.564 21.3371C220.564 20.3076 220.778 20.0945 221.808 20.0857C223.461 20.0857 225.113 20.0857 226.766 20.0857C227.921 20.0857 228.152 20.3164 228.143 21.4614C228.143 21.8431 228.143 22.2158 228.143 22.8194H228.152Z" fill="white"/>
<path d="M405.413 44.9466C402.686 45.2129 401.042 42.9229 401.033 40.8105C401.024 38.4851 402.899 36.4703 405.449 36.5501C407.75 36.6212 409.749 38.3342 409.687 40.9703C409.633 43.1004 407.776 45.1862 405.413 44.9555V44.9466Z" fill="white"/>
<path d="M445.579 32.9374C445.428 29.5647 448.235 26.7865 451.763 26.8487C454.988 26.9019 457.795 29.3339 457.795 32.9996C457.795 36.5499 455.103 39.2037 451.514 39.1327C448.067 39.0617 445.437 36.4789 445.579 32.9374ZM451.683 37.6682C454.677 37.5528 456.214 35.7599 456.329 33.0794C456.454 30.3457 454.535 28.3221 451.612 28.3132C448.813 28.3043 447.054 30.2836 447.009 32.9729C446.965 35.6712 448.982 37.6593 451.683 37.6682Z" fill="#385C94"/>
<path d="M200.316 25.855C203.754 25.7219 206.731 28.3136 206.757 32.2722C206.784 35.9823 203.959 38.7692 200.227 38.7337C196.567 38.6982 193.911 35.9201 193.884 32.2633C193.866 28.6243 196.745 25.6686 200.316 25.855ZM205.167 32.2544C205.265 29.2367 203.026 27.355 200.29 27.355C197.269 27.355 195.456 29.3876 195.439 32.2988C195.43 34.9882 197.34 37.2249 200.29 37.1805C203.177 37.1361 205.158 35.2278 205.167 32.2544Z" fill="#385C94"/>
<path d="M52.2978 60.5356L51.7803 60.6631L53.7964 68.8327L54.314 68.7052L52.2978 60.5356Z" fill="#385C94"/>
<path d="M54.2402 60.5327L53.7227 60.6602L55.7388 68.8297L56.2564 68.7022L54.2402 60.5327Z" fill="#385C94"/>
<path d="M62.3594 68.7026L62.877 68.8301L64.8931 60.6605L64.3756 60.533L62.3594 68.7026Z" fill="#385C94"/>
<path d="M60.4561 68.7065L60.9736 68.834L62.9898 60.6644L62.4722 60.5369L60.4561 68.7065Z" fill="#385C94"/>
</g>
<defs>
<clipPath id="clip0_2235_2770">
<rect width="510" height="75" fill="white"/>
</clipPath>
</defs>
</svg>
